REM DIRINDEX 1\2,1\3,1\4
REM DIRNAME folder01,folder02,folder03,folder04
TITLE ""
FILE "Disc1Track07.mp3" MP3
  TRACK 01 AUDIO
    TITLE "0:"
    INDEX 01 00:00:00
  TRACK 02 AUDIO
    TITLE "4:cjc085_0240"
    INDEX 01 00:05:28
  TRACK 03 AUDIO
    TITLE "0:"
    INDEX 01 00:07:52
  TRACK 04 AUDIO
    TITLE "4:cjc085_0241"
    INDEX 01 00:08:32
  TRACK 05 AUDIO
    TITLE "2:cjc085_0242"
    INDEX 01 00:10:55
  TRACK 06 AUDIO
    TITLE "0:"
    INDEX 01 00:16:26
  TRACK 07 AUDIO
    TITLE "3:cjc085_0243"
    INDEX 01 00:16:65
  TRACK 08 AUDIO
    TITLE "0:"
    INDEX 01 00:20:67
  TRACK 09 AUDIO
    TITLE "4:cjc085_0244"
    INDEX 01 00:21:62
  TRACK 10 AUDIO
    TITLE "2:cjc085_0245"
    INDEX 01 00:23:55
  TRACK 11 AUDIO
    TITLE "0:"
    INDEX 01 00:26:69
  TRACK 12 AUDIO
    TITLE "3:cjc085_0246"
    INDEX 01 00:27:24
  TRACK 13 AUDIO
    TITLE "0:"
    INDEX 01 00:29:56
  TRACK 14 AUDIO
    TITLE "4:cjc085_0247"
    INDEX 01 00:30:28
  TRACK 15 AUDIO
    TITLE "2:cjc085_0248"
    INDEX 01 00:32:09
  TRACK 16 AUDIO
    TITLE "0:"
    INDEX 01 00:36:23
  TRACK 17 AUDIO
    TITLE "3:cjc085_0249"
    INDEX 01 00:36:46
  TRACK 18 AUDIO
    TITLE "0:"
    INDEX 01 00:41:08
  TRACK 19 AUDIO
    TITLE "4:cjc085_0250"
    INDEX 01 00:41:57
  TRACK 20 AUDIO
    TITLE "2:cjc085_0251"
    INDEX 01 00:44:07
  TRACK 21 AUDIO
    TITLE "0:"
    INDEX 01 00:46:43
  TRACK 22 AUDIO
    TITLE "3:cjc085_0252"
    INDEX 01 00:46:62
  TRACK 23 AUDIO
    TITLE "0:"
    INDEX 01 00:49:00
  TRACK 24 AUDIO
    TITLE "4:cjc085_0253"
    INDEX 01 00:49:35
  TRACK 25 AUDIO
    TITLE "2:cjc085_0254"
    INDEX 01 00:51:26
  TRACK 26 AUDIO
    TITLE "0:"
    INDEX 01 00:57:37
  TRACK 27 AUDIO
    TITLE "3:cjc085_0255"
    INDEX 01 00:58:13
  TRACK 28 AUDIO
    TITLE "0:"
    INDEX 01 01:01:68
  TRACK 29 AUDIO
    TITLE "4:cjc085_0256"
    INDEX 01 01:02:57
  TRACK 30 AUDIO
    TITLE "2:cjc085_0257"
    INDEX 01 01:04:62
  TRACK 31 AUDIO
    TITLE "0:"
    INDEX 01 01:08:46
  TRACK 32 AUDIO
    TITLE "3:cjc085_0258"
    INDEX 01 01:09:07
  TRACK 33 AUDIO
    TITLE "0:"
    INDEX 01 01:12:21
  TRACK 34 AUDIO
    TITLE "4:cjc085_0259"
    INDEX 01 01:12:40
  TRACK 35 AUDIO
    TITLE "2:cjc085_0260"
    INDEX 01 01:14:29
  TRACK 36 AUDIO
    TITLE "0:"
    INDEX 01 01:16:58
  TRACK 37 AUDIO
    TITLE "3:cjc085_0261"
    INDEX 01 01:17:51
  TRACK 38 AUDIO
    TITLE "0:"
    INDEX 01 01:20:16
  TRACK 39 AUDIO
    TITLE "4:cjc085_0262"
    INDEX 01 01:20:51
  TRACK 40 AUDIO
    TITLE "2:cjc085_0263"
    INDEX 01 01:22:33
  TRACK 41 AUDIO
    TITLE "0:"
    INDEX 01 01:24:47
  TRACK 42 AUDIO
    TITLE "3:cjc085_0264"
    INDEX 01 01:25:02
  TRACK 43 AUDIO
    TITLE "0:"
    INDEX 01 01:27:04
  TRACK 44 AUDIO
    TITLE "4:cjc085_0265"
    INDEX 01 01:28:00
  TRACK 45 AUDIO
    TITLE "2:cjc085_0266"
    INDEX 01 01:30:01
  TRACK 46 AUDIO
    TITLE "0:"
    INDEX 01 01:32:70
  TRACK 47 AUDIO
    TITLE "3:cjc085_0267"
    INDEX 01 01:33:21
  TRACK 48 AUDIO
    TITLE "0:"
    INDEX 01 01:35:57
  TRACK 49 AUDIO
    TITLE "4:cjc085_0268"
    INDEX 01 01:36:17
  TRACK 50 AUDIO
    TITLE "2:cjc085_0269"
    INDEX 01 01:37:71
  TRACK 51 AUDIO
    TITLE "0:"
    INDEX 01 01:40:66
  TRACK 52 AUDIO
    TITLE "3:cjc085_0270"
    INDEX 01 01:41:18
  TRACK 53 AUDIO
    TITLE "0:"
    INDEX 01 01:43:52
  TRACK 54 AUDIO
    TITLE "4:cjc085_0271"
    INDEX 01 01:44:24
  TRACK 55 AUDIO
    TITLE "2:cjc085_0272"
    INDEX 01 01:46:10
  TRACK 56 AUDIO
    TITLE "0:"
    INDEX 01 01:49:16
  TRACK 57 AUDIO
    TITLE "3:cjc085_0273"
    INDEX 01 01:49:61
  TRACK 58 AUDIO
    TITLE "0:"
    INDEX 01 01:53:20
  TRACK 59 AUDIO
    TITLE "4:cjc085_0274"
    INDEX 01 01:54:52
  TRACK 60 AUDIO
    TITLE "2:cjc085_0275"
    INDEX 01 01:56:47
  TRACK 61 AUDIO
    TITLE "0:"
    INDEX 01 02:00:53
  TRACK 62 AUDIO
    TITLE "3:cjc085_0276"
    INDEX 01 02:01:29
  TRACK 63 AUDIO
    TITLE "0:"
    INDEX 01 02:05:58
  TRACK 64 AUDIO
    TITLE "4:cjc085_0277"
    INDEX 01 02:06:44
  TRACK 65 AUDIO
    TITLE "2:cjc085_0278"
    INDEX 01 02:08:25
  TRACK 66 AUDIO
    TITLE "0:"
    INDEX 01 02:12:42
  TRACK 67 AUDIO
    TITLE "3:cjc085_0279"
    INDEX 01 02:12:70
  TRACK 68 AUDIO
    TITLE "0:"
    INDEX 01 02:16:72
  TRACK 69 AUDIO
    TITLE "4:cjc085_0280"
    INDEX 01 02:17:61
  TRACK 70 AUDIO
    TITLE "2:cjc085_0281"
    INDEX 01 02:19:48
  TRACK 71 AUDIO
    TITLE "0:"
    INDEX 01 02:25:67
  TRACK 72 AUDIO
    TITLE "3:cjc085_0282"
    INDEX 01 02:26:44
  TRACK 73 AUDIO
    TITLE "0:"
    INDEX 01 02:31:30
  TRACK 74 AUDIO
    TITLE "4:cjc085_0283"
    INDEX 01 02:32:06
  TRACK 75 AUDIO
    TITLE "2:cjc085_0284"
    INDEX 01 02:33:48
  TRACK 76 AUDIO
    TITLE "0:"
    INDEX 01 02:35:69
  TRACK 77 AUDIO
    TITLE "3:cjc085_0285"
    INDEX 01 02:36:25
  TRACK 78 AUDIO
    TITLE "0:"
    INDEX 01 02:38:59
  TRACK 79 AUDIO
    TITLE "4:cjc085_0286"
    INDEX 01 02:39:49
  TRACK 80 AUDIO
    TITLE "2:cjc085_0287"
    INDEX 01 02:41:30
  TRACK 81 AUDIO
    TITLE "0:"
    INDEX 01 02:45:09
  TRACK 82 AUDIO
    TITLE "3:cjc085_0288"
    INDEX 01 02:45:30
  TRACK 83 AUDIO
    TITLE "0:"
    INDEX 01 02:49:20
  TRACK 84 AUDIO
    TITLE "4:cjc085_0289"
    INDEX 01 02:50:06
  TRACK 85 AUDIO
    TITLE "2:cjc085_0290"
    INDEX 01 02:52:03
  TRACK 86 AUDIO
    TITLE "0:"
    INDEX 01 02:55:38
  TRACK 87 AUDIO
    TITLE "3:cjc085_0291"
    INDEX 01 02:55:58
  TRACK 88 AUDIO
    TITLE "0:"
    INDEX 01 02:58:48
  TRACK 89 AUDIO
    TITLE "4:cjc085_0292"
    INDEX 01 02:59:34
  TRACK 90 AUDIO
    TITLE "2:cjc085_0293"
    INDEX 01 03:01:06
  TRACK 91 AUDIO
    TITLE "0:"
    INDEX 01 03:05:68
  TRACK 92 AUDIO
    TITLE "3:cjc085_0294"
    INDEX 01 03:05:74
  TRACK 93 AUDIO
    TITLE "0:"
    INDEX 01 03:09:42
  TRACK 94 AUDIO
    TITLE "4:cjc085_0295"
    INDEX 01 03:11:14
  TRACK 95 AUDIO
    TITLE "2:cjc085_0296"
    INDEX 01 03:13:28
  TRACK 96 AUDIO
    TITLE "0:"
    INDEX 01 03:17:38
  TRACK 97 AUDIO
    TITLE "3:cjc085_0297"
    INDEX 01 03:18:41
  TRACK 98 AUDIO
    TITLE "0:"
    INDEX 01 03:22:04
  TRACK 99 AUDIO
    TITLE "4:cjc085_0298"
    INDEX 01 03:23:56
  TRACK 100 AUDIO
    TITLE "2:cjc085_0299"
    INDEX 01 03:25:26
  TRACK 101 AUDIO
    TITLE "0:"
    INDEX 01 03:29:49
  TRACK 102 AUDIO
    TITLE "3:cjc085_0300"
    INDEX 01 03:29:72
  TRACK 103 AUDIO
    TITLE "0:"
    INDEX 01 03:33:43
  TRACK 104 AUDIO
    TITLE "4:cjc085_0301"
    INDEX 01 03:34:50
  TRACK 105 AUDIO
    TITLE "2:cjc085_0302"
    INDEX 01 03:36:43
  TRACK 106 AUDIO
    TITLE "0:"
    INDEX 01 03:40:55
  TRACK 107 AUDIO
    TITLE "3:cjc085_0303"
    INDEX 01 03:41:27
  TRACK 108 AUDIO
    TITLE "0:"
    INDEX 01 03:46:08
  TRACK 109 AUDIO
    TITLE "4:cjc085_0304"
    INDEX 01 03:46:71
  TRACK 110 AUDIO
    TITLE "2:cjc085_0305"
    INDEX 01 03:48:44
  TRACK 111 AUDIO
    TITLE "0:"
    INDEX 01 03:51:66
  TRACK 112 AUDIO
    TITLE "3:cjc085_0306"
    INDEX 01 03:52:13
  TRACK 113 AUDIO
    TITLE "0:"
    INDEX 01 03:55:35
  TRACK 114 AUDIO
    TITLE "4:cjc085_0307"
    INDEX 01 03:56:28
  TRACK 115 AUDIO
    TITLE "2:cjc085_0308"
    INDEX 01 03:57:71
  TRACK 116 AUDIO
    TITLE "0:"
    INDEX 01 04:03:52
  TRACK 117 AUDIO
    TITLE "3:cjc085_0309"
    INDEX 01 04:04:02
  TRACK 118 AUDIO
    TITLE "0:"
    INDEX 01 04:08:18
  TRACK 119 AUDIO
    TITLE "4:cjc085_0310"
    INDEX 01 04:09:13
  TRACK 120 AUDIO
    TITLE "2:cjc085_0311"
    INDEX 01 04:11:00
  TRACK 121 AUDIO
    TITLE "0:"
    INDEX 01 04:15:26
  TRACK 122 AUDIO
    TITLE "3:cjc085_0312"
    INDEX 01 04:16:05
  TRACK 123 AUDIO
    TITLE "0:"
    INDEX 01 04:20:42
  TRACK 124 AUDIO
    TITLE "4:cjc085_0313"
    INDEX 01 04:21:26
  TRACK 125 AUDIO
    TITLE "2:cjc085_0314"
    INDEX 01 04:22:73
  TRACK 126 AUDIO
    TITLE "0:"
    INDEX 01 04:28:16
  TRACK 127 AUDIO
    TITLE "3:cjc085_0315"
    INDEX 01 04:28:52
  TRACK 128 AUDIO
    TITLE "0:"
    INDEX 01 04:33:25
  TRACK 129 AUDIO
    TITLE "4:cjc085_0316"
    INDEX 01 04:33:65
  TRACK 130 AUDIO
    TITLE "2:cjc085_0317"
    INDEX 01 04:35:22
  TRACK 131 AUDIO
    TITLE "0:"
    INDEX 01 04:39:16
  TRACK 132 AUDIO
    TITLE "3:cjc085_0318"
    INDEX 01 04:39:44
  TRACK 133 AUDIO
    TITLE "0:"
    INDEX 01 04:42:26
  TRACK 134 AUDIO
    TITLE "4:cjc085_0319"
    INDEX 01 04:43:24
  TRACK 135 AUDIO
    TITLE "2:cjc085_0320"
    INDEX 01 04:44:66
  TRACK 136 AUDIO
    TITLE "0:"
    INDEX 01 04:47:14
  TRACK 137 AUDIO
    TITLE "3:cjc085_0321"
    INDEX 01 04:47:67
  TRACK 138 AUDIO
    TITLE "0:"
    INDEX 01 04:50:06
  TRACK 139 AUDIO
    TITLE "4:cjc085_0322"
    INDEX 01 04:51:02
  TRACK 140 AUDIO
    TITLE "2:cjc085_0323"
    INDEX 01 04:52:50
  TRACK 141 AUDIO
    TITLE "0:"
    INDEX 01 04:55:37
  TRACK 142 AUDIO
    TITLE "3:cjc085_0324"
    INDEX 01 04:55:43
  TRACK 143 AUDIO
    TITLE "0:"
    INDEX 01 04:58:02
